<svg width="512" height="512" viewBox="0 0 512 512" fill="none" xmlns="http://www.w3.org/2000/svg">
  <defs>
    <radialGradient id="core" cx="0" cy="0" r="1" gradientUnits="userSpaceOnUse" gradientTransform="translate(256 256) rotate(90) scale(220)">
      <stop offset="0" stop-color="#FFFFFF"/>
      <stop offset="0.4" stop-color="#D6F4FF"/>
      <stop offset="0.75" stop-color="#8FD9FF"/>
      <stop offset="1" stop-color="#203058"/>
    </radialGradient>
    <linearGradient id="beam" x1="64" y1="64" x2="448" y2="448" gradientUnits="userSpaceOnUse">
      <stop offset="0" stop-color="#7AD7FF"/>
      <stop offset="0.5" stop-color="#7B87F8"/>
      <stop offset="1" stop-color="#D784F2"/>
    </linearGradient>
    <filter id="glow" x="-50%" y="-50%" width="200%" height="200%" color-interpolation-filters="sRGB">
      <feGaussianBlur stdDeviation="7" result="blur"/>
      <feColorMatrix in="blur" type="matrix" values="0 0 0 0 0.25  0 0 0 0 0.55  0 0 0 0 0.9  0 0 0 0.75 0" result="glow"/>
      <feBlend in="SourceGraphic" in2="glow" mode="screen"/>
    </filter>
  </defs>

  <rect width="512" height="512" rx="112" fill="#F6FBFF"/>
  <rect x="12" y="12" width="488" height="488" rx="104" stroke="#0C1B3A" stroke-width="18"/>
  <rect x="24" y="24" width="464" height="464" rx="92" stroke="#BFDFF4" stroke-width="6" opacity="0.85"/>

  <circle cx="256" cy="256" r="190" fill="url(#core)" opacity="0.22"/>
  <circle cx="256" cy="256" r="150" fill="url(#core)" opacity="0.5"/>
  <circle cx="256" cy="256" r="120" stroke="#2E3C6B" stroke-width="10" opacity="0.35"/>

  <g filter="url(#glow)">
    <path d="M184 104L336 256L248 280L328 408L184 280L272 256L184 104Z" fill="url(#beam)"/>
    <path d="M176 96L344 256L242 282L334 416L176 282L270 256L176 96Z" stroke="#1C2A52" stroke-width="6" opacity="0.35"/>
    <circle cx="256" cy="256" r="18" fill="#F8FDFF"/>
    <circle cx="256" cy="256" r="36" stroke="#CFEFFF" stroke-width="5" opacity="0.65"/>
  </g>

  <path d="M84 376C144 356 172 320 196 272" stroke="#6FBCE6" stroke-width="10" stroke-linecap="round" opacity="0.6"/>
  <path d="M428 136C368 156 340 192 316 240" stroke="#D59AE6" stroke-width="10" stroke-linecap="round" opacity="0.6"/>
</svg>
